<?xml version="1.0" encoding="UTF-8"?>
<svg width="136" height="60" viewBox="0 0 136 60" fill="none"
    xmlns="http://www.w3.org/2000/svg">

    <g id="surface1">
        <path style=" stroke:none;fill-rule:nonzero;fill:rgb(0%,0%,0%);fill-opacity:1;" d="M 74.898438 5.566406 C 74.496094 6.480469 74.386719 7.054688 74.386719 8.542969 C 74.386719 9.582031 74.386719 10.410156 74.367188 10.410156 C 74.367188 10.410156 73.730469 10.113281 72.988281 9.730469 C 71.121094 8.796875 68.617188 8.648438 66.472656 9.347656 C 65.664062 9.601562 64.730469 9.984375 64.390625 10.21875 L 63.777344 10.625 L 64.964844 10.625 C 66.8125 10.625 70.25 11.324219 70.25 11.707031 C 70.25 11.8125 70.015625 11.898438 69.742188 11.898438 C 68.574219 11.898438 65.835938 12.980469 64.371094 14 C 62.96875 15 61.144531 16.890625 61.378906 17.101562 C 61.441406 17.167969 61.992188 16.976562 62.628906 16.679688 C 64.011719 16.0625 66.707031 15.339844 68.339844 15.191406 C 69.507812 15.0625 69.507812 15.0625 68.976562 15.445312 C 67.214844 16.742188 66.386719 17.527344 65.621094 18.675781 C 64.730469 20.035156 64.09375 21.777344 64.09375 22.945312 L 64.09375 23.625 L 64.902344 22.902344 C 65.878906 22.011719 67.746094 20.738281 69.484375 19.78125 C 70.695312 19.101562 70.738281 19.101562 70.566406 19.589844 C 69.910156 21.714844 69.804688 22.328125 69.890625 23.582031 C 69.929688 24.414062 70.164062 25.410156 70.460938 26.027344 L 70.929688 27.089844 L 71.332031 25.496094 C 71.566406 24.625 72.246094 22.902344 72.859375 21.671875 L 73.964844 19.441406 L 74.027344 20.332031 C 74.070312 20.84375 74.175781 21.246094 74.28125 21.246094 C 74.386719 21.246094 74.917969 20.652344 75.492188 19.90625 L 76.511719 18.589844 L 76.703125 22.097656 C 77.019531 28.085938 76.320312 37.820312 75.109375 44.085938 C 74.515625 47.210938 74.367188 46.953125 76.808594 46.953125 L 78.910156 46.953125 L 79.058594 44.449219 C 79.289062 40.964844 79.035156 31.722656 78.632812 28.046875 C 78.464844 26.34375 78.058594 23.5625 77.785156 21.839844 C 77.488281 20.121094 77.253906 18.589844 77.253906 18.464844 C 77.253906 18.335938 77.742188 18.65625 78.335938 19.164062 C 78.929688 19.652344 79.628906 20.246094 79.90625 20.460938 L 80.394531 20.820312 L 80.289062 19.929688 L 80.160156 19.015625 L 80.863281 19.652344 C 81.710938 20.460938 83.683594 23.390625 84.152344 24.582031 C 84.574219 25.664062 84.789062 25.730469 84.980469 24.835938 C 85.359375 22.839844 84.9375 20.585938 83.832031 18.84375 L 83.195312 17.847656 L 83.789062 17.972656 C 85.167969 18.3125 88.078125 19.417969 89.308594 20.097656 C 90.03125 20.503906 90.6875 20.820312 90.730469 20.820312 C 90.898438 20.820312 90.179688 19.035156 89.667969 18.144531 C 88.90625 16.847656 86.972656 15.191406 85.296875 14.363281 C 83.558594 13.535156 83.683594 13.386719 86.230469 13.386719 C 87.824219 13.386719 88.949219 13.511719 91.367188 13.917969 L 92.214844 14.042969 L 91.367188 13.277344 C 89.519531 11.601562 85.617188 10.242188 83.257812 10.472656 C 82.644531 10.539062 82.136719 10.558594 82.136719 10.515625 C 82.136719 10.15625 85.316406 8.753906 87.207031 8.265625 C 88.375 7.988281 88.097656 7.753906 86.105469 7.4375 C 83.621094 7.011719 80.820312 7.734375 78.84375 9.347656 L 77.996094 10.027344 L 77.847656 8.859375 C 77.761719 8.199219 77.550781 7.371094 77.402344 6.96875 C 77.019531 6.117188 75.832031 4.460938 75.578125 4.460938 C 75.46875 4.460938 75.171875 4.972656 74.898438 5.566406 Z M 74.898438 5.566406 "/>
        <path style=" stroke:none;fill-rule:nonzero;fill:rgb(0%,0%,0%);fill-opacity:1;" d="M 13.648438 16.996094 C 13.160156 17.101562 12.480469 17.316406 12.160156 17.507812 C 11.417969 17.890625 10.125 19.269531 9.65625 20.183594 C 9.082031 21.308594 8.703125 23.5625 8.703125 25.964844 L 8.703125 28.257812 L 6.367188 28.257812 L 6.367188 32.292969 L 8.703125 32.292969 L 8.703125 44.191406 L 14.21875 44.191406 L 14.21875 32.292969 L 15.175781 32.292969 C 15.707031 32.292969 16.128906 32.359375 16.128906 32.441406 C 16.128906 32.550781 15.980469 33.082031 15.8125 33.65625 C 15.367188 35.121094 15.410156 37.5 15.917969 39.136719 C 17.445312 44.085938 23.707031 46.273438 27.675781 43.238281 L 28.652344 42.492188 L 28.652344 44.191406 L 34.167969 44.191406 L 34.167969 32.273438 L 35.082031 32.335938 L 35.972656 32.402344 L 36.078125 36.648438 C 36.1875 40.558594 36.226562 40.984375 36.675781 41.917969 C 37.269531 43.085938 38.328125 44.042969 39.453125 44.382812 C 40.578125 44.703125 42.59375 44.679688 43.847656 44.300781 C 45.589844 43.769531 45.546875 43.875 44.824219 41.515625 C 44.398438 40.113281 44.101562 39.433594 43.910156 39.453125 C 43.742188 39.476562 43.359375 39.5625 43.042969 39.644531 C 42.636719 39.730469 42.363281 39.644531 42.042969 39.328125 C 41.621094 38.902344 41.597656 38.648438 41.597656 35.585938 L 41.597656 32.316406 L 43.464844 32.402344 L 45.3125 32.464844 L 45.417969 36.691406 C 45.523438 40.75 45.546875 40.941406 46.097656 42.003906 C 47.136719 43.957031 48.664062 44.722656 51.167969 44.53125 C 52.039062 44.46875 54.246094 44.339844 56.09375 44.277344 L 59.425781 44.148438 L 59.425781 39.261719 C 59.425781 34.695312 59.445312 34.3125 59.871094 33.65625 C 60.464844 32.675781 61.503906 32.082031 62.609375 32.082031 C 63.777344 32.082031 64.648438 32.613281 65.15625 33.675781 C 65.539062 34.460938 65.582031 35.015625 65.582031 39.371094 L 65.582031 44.191406 L 71.121094 44.191406 L 71.054688 38.074219 C 70.992188 32.273438 70.972656 31.933594 70.527344 31.105469 C 69.613281 29.382812 67.871094 28.277344 65.410156 27.832031 C 63.457031 27.492188 61.929688 27.898438 60.125 29.257812 L 59.425781 29.765625 L 59.425781 17.421875 L 53.90625 17.421875 L 53.863281 22.777344 L 53.800781 28.152344 L 52.378906 28.214844 L 50.9375 28.277344 L 50.9375 22.308594 L 45.4375 22.308594 L 45.375 25.199219 L 45.3125 28.085938 L 43.464844 28.152344 L 41.597656 28.238281 L 41.597656 22.308594 L 36.101562 22.308594 L 36.039062 25.21875 L 35.972656 28.152344 L 34.914062 28.171875 C 34.339844 28.195312 32.683594 28.214844 31.261719 28.238281 L 28.652344 28.257812 L 28.652344 28.894531 C 28.652344 29.660156 28.589844 29.679688 27.71875 29 C 26.65625 28.195312 25.320312 27.789062 23.558594 27.769531 C 21.585938 27.746094 20.5 28.046875 19.101562 29 C 18.484375 29.40625 17.953125 29.746094 17.914062 29.746094 C 17.871094 29.746094 17.828125 29.40625 17.828125 29 L 17.828125 28.257812 L 14.175781 28.257812 L 14.242188 25.496094 C 14.324219 23.011719 14.367188 22.691406 14.792969 22.289062 C 15.257812 21.800781 16.066406 21.671875 17.019531 21.949219 C 17.59375 22.097656 17.636719 22.03125 18.570312 20.183594 L 19.527344 18.273438 L 19.039062 17.972656 C 17.765625 17.125 15.238281 16.679688 13.648438 16.996094 Z M 53.863281 36.226562 C 53.90625 39.476562 53.863281 39.984375 53.632812 39.644531 C 53.398438 39.328125 53.269531 39.304688 52.890625 39.496094 C 52.253906 39.835938 51.847656 39.792969 51.359375 39.304688 C 50.980469 38.921875 50.9375 38.605469 50.9375 35.585938 L 50.9375 32.273438 L 52.378906 32.335938 L 53.800781 32.402344 Z M 26.953125 32.972656 C 28.375 33.953125 29.011719 35.480469 28.652344 37.054688 C 28.015625 39.859375 24.660156 40.921875 22.496094 38.964844 C 21.136719 37.734375 20.90625 35.4375 21.988281 33.910156 C 22.941406 32.527344 25.574219 32.039062 26.953125 32.972656 Z M 26.953125 32.972656 "/>
        <path style=" stroke:none;fill-rule:nonzero;fill:rgb(0%,0%,0%);fill-opacity:1;" d="M 100.597656 30.808594 L 100.597656 44.191406 L 106.117188 44.191406 L 106.117188 39.285156 C 106.117188 34.695312 106.136719 34.3125 106.5625 33.65625 C 107.15625 32.675781 108.195312 32.082031 109.300781 32.082031 C 110.46875 32.082031 111.339844 32.613281 111.847656 33.675781 C 112.230469 34.460938 112.273438 35.015625 112.273438 39.371094 L 112.273438 44.191406 L 117.8125 44.191406 L 117.746094 38.074219 C 117.683594 32.273438 117.664062 31.933594 117.21875 31.105469 C 116.304688 29.382812 114.5625 28.277344 112.101562 27.832031 C 110.148438 27.492188 108.621094 27.898438 106.816406 29.257812 L 106.117188 29.765625 L 106.117188 17.421875 L 100.597656 17.421875 Z M 100.597656 30.808594 "/>
        <path style=" stroke:none;fill-rule:nonzero;fill:rgb(0%,0%,0%);fill-opacity:1;" d="M 91.683594 27.898438 C 90.644531 28.195312 89.371094 28.894531 88.925781 29.425781 C 88.5 29.9375 88.289062 29.789062 88.289062 29 L 88.289062 28.257812 L 82.773438 28.257812 L 82.773438 44.191406 L 88.269531 44.191406 L 88.332031 39.222656 C 88.394531 34.546875 88.417969 34.207031 88.839844 33.632812 C 90.371094 31.550781 93.066406 31.53125 94.125 33.570312 C 94.378906 34.058594 94.445312 35.183594 94.445312 39.199219 L 94.445312 44.191406 L 99.984375 44.191406 L 99.921875 37.96875 L 99.855469 31.722656 L 99.21875 30.679688 C 98.859375 30.105469 98.242188 29.425781 97.863281 29.171875 C 96.140625 28.003906 93.363281 27.449219 91.683594 27.898438 Z M 91.683594 27.898438 "/>
        <path style=" stroke:none;fill-rule:nonzero;fill:rgb(0%,0%,0%);fill-opacity:1;" d="M 120.105469 38.09375 C 117.875 39.582031 117.8125 42.472656 119.976562 44.066406 C 120.824219 44.703125 123.03125 44.703125 123.882812 44.066406 C 126.046875 42.472656 125.984375 39.582031 123.753906 38.09375 C 122.757812 37.414062 121.101562 37.414062 120.105469 38.09375 Z M 120.105469 38.09375 "/>
        <path style=" stroke:none;fill-rule:nonzero;fill:rgb(0%,0%,0%);fill-opacity:1;" d="M 95.167969 48.929688 C 94.953125 49.527344 95.1875 53.179688 95.464844 53.285156 C 95.652344 53.351562 95.71875 52.796875 95.71875 51.011719 C 95.71875 49.527344 95.632812 48.65625 95.503906 48.65625 C 95.378906 48.65625 95.230469 48.78125 95.167969 48.929688 Z M 95.167969 48.929688 "/>
        <path style=" stroke:none;fill-rule:nonzero;fill:rgb(0%,0%,0%);fill-opacity:1;" d="M 30.179688 49.207031 C 29.882812 49.417969 29.710938 49.738281 29.710938 50.164062 C 29.710938 50.671875 29.839844 50.84375 30.519531 51.117188 C 31.855469 51.691406 31.941406 51.777344 31.941406 52.179688 C 31.941406 52.480469 31.773438 52.605469 31.242188 52.648438 C 30.859375 52.691406 30.390625 52.605469 30.222656 52.457031 C 30.011719 52.289062 29.839844 52.265625 29.691406 52.414062 C 29.351562 52.753906 30.285156 53.328125 31.136719 53.328125 C 31.898438 53.328125 32.683594 52.710938 32.683594 52.097656 C 32.683594 51.457031 32.21875 51.035156 31.242188 50.777344 C 30.476562 50.585938 30.328125 50.460938 30.390625 50.078125 C 30.457031 49.546875 31.347656 49.335938 32.027344 49.695312 C 32.640625 50.035156 32.789062 49.609375 32.21875 49.207031 C 31.601562 48.78125 30.796875 48.78125 30.179688 49.207031 Z M 30.179688 49.207031 "/>
        <path style=" stroke:none;fill-rule:nonzero;fill:rgb(0%,0%,0%);fill-opacity:1;" d="M 59.742188 49.058594 C 59.59375 49.3125 60 49.566406 60.273438 49.398438 C 60.507812 49.25 60.359375 48.867188 60.0625 48.867188 C 59.957031 48.867188 59.828125 48.953125 59.742188 49.058594 Z M 59.742188 49.058594 "/>
        <path style=" stroke:none;fill-rule:nonzero;fill:rgb(0%,0%,0%);fill-opacity:1;" d="M 73.453125 49.269531 C 72.605469 50.121094 73.007812 50.90625 74.535156 51.394531 C 75.363281 51.671875 75.660156 52.074219 75.28125 52.457031 C 74.984375 52.753906 73.710938 52.777344 73.539062 52.480469 C 73.347656 52.179688 73.007812 52.222656 73.007812 52.542969 C 73.007812 52.882812 73.898438 53.328125 74.558594 53.328125 C 75.320312 53.328125 75.980469 52.734375 75.980469 52.054688 C 75.980469 51.375 75.832031 51.246094 74.601562 50.777344 C 73.496094 50.355469 73.410156 49.652344 74.453125 49.546875 C 74.832031 49.503906 75.28125 49.589844 75.449219 49.714844 C 75.660156 49.886719 75.769531 49.886719 75.875 49.714844 C 76.105469 49.335938 75.703125 49.058594 74.75 48.929688 C 74.070312 48.84375 73.816406 48.910156 73.453125 49.269531 Z M 73.453125 49.269531 "/>
        <path style=" stroke:none;fill-rule:nonzero;fill:rgb(0%,0%,0%);fill-opacity:1;" d="M 37.777344 49.527344 C 37.777344 49.675781 37.609375 49.90625 37.417969 50.058594 C 37.054688 50.3125 37.054688 50.332031 37.417969 50.460938 C 37.691406 50.566406 37.777344 50.863281 37.777344 51.566406 C 37.777344 52.710938 38.074219 53.328125 38.625 53.328125 C 39.199219 53.328125 39.390625 52.902344 38.859375 52.753906 C 38.476562 52.671875 38.414062 52.480469 38.414062 51.628906 C 38.414062 50.800781 38.5 50.585938 38.839844 50.503906 C 39.074219 50.4375 39.261719 50.289062 39.261719 50.164062 C 39.261719 50.035156 39.074219 49.929688 38.839844 49.929688 C 38.605469 49.929688 38.414062 49.78125 38.414062 49.609375 C 38.414062 49.441406 38.265625 49.292969 38.097656 49.292969 C 37.925781 49.292969 37.777344 49.398438 37.777344 49.527344 Z M 37.777344 49.527344 "/>
        <path style=" stroke:none;fill-rule:nonzero;fill:rgb(0%,0%,0%);fill-opacity:1;" d="M 81.285156 49.609375 C 81.285156 49.78125 81.136719 49.929688 80.96875 49.929688 C 80.796875 49.929688 80.648438 50.078125 80.648438 50.246094 C 80.648438 50.417969 80.796875 50.566406 80.96875 50.566406 C 81.179688 50.566406 81.285156 50.90625 81.328125 51.882812 C 81.371094 52.988281 81.457031 53.222656 81.796875 53.285156 C 82.007812 53.328125 82.285156 53.265625 82.410156 53.136719 C 82.601562 52.945312 82.539062 52.859375 82.175781 52.777344 C 81.773438 52.648438 81.710938 52.5 81.710938 51.628906 C 81.710938 50.800781 81.796875 50.585938 82.136719 50.503906 C 82.367188 50.4375 82.558594 50.289062 82.558594 50.164062 C 82.558594 50.035156 82.367188 49.929688 82.136719 49.929688 C 81.902344 49.929688 81.710938 49.78125 81.710938 49.609375 C 81.710938 49.441406 81.625 49.292969 81.5 49.292969 C 81.390625 49.292969 81.285156 49.441406 81.285156 49.609375 Z M 81.285156 49.609375 "/>
        <path style=" stroke:none;fill-rule:nonzero;fill:rgb(0%,0%,0%);fill-opacity:1;" d="M 44.355469 50.355469 C 44.082031 50.628906 43.933594 51.054688 43.933594 51.628906 C 43.933594 52.96875 45.058594 53.753906 46.054688 53.117188 C 46.246094 52.988281 46.414062 53.011719 46.5 53.160156 C 46.839844 53.691406 47.117188 53.011719 47.117188 51.628906 C 47.117188 50.246094 46.839844 49.566406 46.5 50.097656 C 46.414062 50.246094 46.246094 50.269531 46.054688 50.140625 C 45.523438 49.800781 44.804688 49.90625 44.355469 50.355469 Z M 46.308594 51.097656 C 46.671875 51.925781 46.246094 52.691406 45.417969 52.691406 C 44.929688 52.691406 44.71875 52.5625 44.527344 52.160156 C 44.167969 51.332031 44.589844 50.566406 45.417969 50.566406 C 45.90625 50.566406 46.117188 50.695312 46.308594 51.097656 Z M 46.308594 51.097656 "/>
        <path style=" stroke:none;fill-rule:nonzero;fill:rgb(0%,0%,0%);fill-opacity:1;" d="M 51.996094 51.269531 C 51.996094 52.246094 52.105469 52.753906 52.335938 52.988281 C 52.71875 53.390625 53.503906 53.433594 53.863281 53.074219 C 54.054688 52.882812 54.121094 52.882812 54.121094 53.136719 C 54.121094 53.773438 53.757812 54.03125 52.972656 53.921875 C 52.359375 53.859375 52.210938 53.902344 52.253906 54.15625 C 52.359375 54.710938 53.714844 54.710938 54.289062 54.179688 C 54.714844 53.773438 54.757812 53.542969 54.757812 51.820312 C 54.757812 50.375 54.691406 49.90625 54.5 49.972656 C 54.332031 50.035156 54.183594 50.585938 54.121094 51.332031 C 54.015625 52.5625 53.992188 52.585938 53.378906 52.585938 C 52.761719 52.585938 52.742188 52.5625 52.632812 51.332031 C 52.484375 49.503906 51.996094 49.484375 51.996094 51.269531 Z M 51.996094 51.269531 "/>
        <path style=" stroke:none;fill-rule:nonzero;fill:rgb(0%,0%,0%);fill-opacity:1;" d="M 59.851562 51.628906 C 59.851562 52.628906 59.933594 53.328125 60.0625 53.328125 C 60.191406 53.328125 60.273438 52.628906 60.273438 51.628906 C 60.273438 50.628906 60.191406 49.929688 60.0625 49.929688 C 59.933594 49.929688 59.851562 50.628906 59.851562 51.628906 Z M 59.851562 51.628906 "/>
        <path style=" stroke:none;fill-rule:nonzero;fill:rgb(0%,0%,0%);fill-opacity:1;" d="M 65.367188 51.628906 C 65.367188 53.988281 65.898438 53.902344 66.046875 51.523438 C 66.109375 50.738281 66.152344 50.671875 66.746094 50.671875 C 67.363281 50.671875 67.382812 50.695312 67.492188 51.925781 C 67.640625 53.730469 68.128906 53.796875 68.128906 51.988281 C 68.128906 50.949219 68.042969 50.546875 67.746094 50.289062 C 67.277344 49.867188 66.621094 49.824219 66.238281 50.183594 C 66.003906 50.398438 65.941406 50.398438 65.855469 50.183594 C 65.582031 49.460938 65.367188 50.097656 65.367188 51.628906 Z M 65.367188 51.628906 "/>
        <path style=" stroke:none;fill-rule:nonzero;fill:rgb(0%,0%,0%);fill-opacity:1;" d="M 87.441406 51.351562 C 87.441406 52.945312 87.632812 53.328125 88.5 53.328125 C 88.800781 53.328125 89.160156 53.222656 89.308594 53.074219 C 89.5 52.882812 89.5625 52.902344 89.5625 53.160156 C 89.5625 53.667969 89.011719 54.007812 88.269531 53.921875 C 87.417969 53.839844 87.1875 54.328125 87.992188 54.519531 C 88.777344 54.710938 89.605469 54.390625 89.925781 53.753906 C 90.285156 53.074219 90.199219 50.097656 89.839844 49.972656 C 89.648438 49.929688 89.5625 50.207031 89.5625 50.949219 C 89.5625 52.394531 89.414062 52.691406 88.691406 52.691406 C 88.121094 52.691406 88.097656 52.671875 88.035156 51.375 C 87.992188 50.566406 87.863281 50.035156 87.714844 49.972656 C 87.503906 49.90625 87.441406 50.289062 87.441406 51.351562 Z M 87.441406 51.351562 "/>
        <path style=" stroke:none;fill-rule:nonzero;fill:rgb(0%,0%,0%);fill-opacity:1;" d="M 101.257812 50.289062 C 101.003906 50.503906 100.746094 51.035156 100.683594 51.457031 C 100.578125 52.097656 100.640625 52.328125 101.085938 52.777344 C 101.660156 53.351562 102.46875 53.476562 103.167969 53.117188 C 103.867188 52.734375 103.632812 52.457031 102.722656 52.605469 C 102.167969 52.691406 101.765625 52.648438 101.554688 52.480469 C 101.003906 52.011719 101.195312 51.863281 102.445312 51.800781 C 103.890625 51.714844 104.144531 51.332031 103.273438 50.460938 C 102.65625 49.84375 101.894531 49.78125 101.257812 50.289062 Z M 102.933594 50.886719 C 103.167969 51.160156 103.0625 51.203125 102.191406 51.203125 C 101.320312 51.203125 101.214844 51.160156 101.449219 50.886719 C 101.597656 50.714844 101.9375 50.566406 102.191406 50.566406 C 102.445312 50.566406 102.785156 50.714844 102.933594 50.886719 Z M 102.933594 50.886719 "/>
    </g>
</svg>
