<svg id="visual" viewBox="0 0 900 600" width="900" height="600"
    xmlns="http://www.w3.org/2000/svg"
    xmlns:xlink="http://www.w3.org/1999/xlink" version="1.1">
    <rect x="0" y="0" width="900" height="600" fill="#fff"></rect>
    <path d="M473 0L485.7 25C498.3 50 523.7 100 513.5 150C503.3 200 457.7 250 473.5 300C489.3 350 566.7 400 609.3 450C652 500 660 550 664 575L668 600L0 600L0 575C0 550 0 500 0 450C0 400 0 350 0 300C0 250 0 200 0 150C0 100 0 50 0 25L0 0Z" fill="#ffb700" stroke-linecap="round" stroke-linejoin="miter"></path>
</svg>